<svg xmlns="http://www.w3.org/2000/svg" width="1200" height="320" viewBox="0 0 1200 320" role="img" aria-labelledby="title desc">
  <title id="title">Assign Tutors Logo</title>
  <desc id="desc">Assign Tutors name with tagline in a clean academic style.</desc>
  <defs>
    <linearGradient id="g1" x1="0" y1="0" x2="1" y2="1">
      <stop offset="0%" stop-color="#1f5f4a"/>
      <stop offset="100%" stop-color="#2f8c6a"/>
    </linearGradient>
  </defs>

  <rect x="0" y="0" width="1200" height="320" rx="26" fill="#fffdf8"/>

  <g transform="translate(42,44)">
    <rect x="0" y="0" width="230" height="230" rx="34" fill="url(#g1)"/>
    <circle cx="115" cy="84" r="44" fill="#ffffff" opacity="0.16"/>
    <path d="M72 146c21-10 38-34 46-57 12 26 31 45 55 57-18 10-31 25-39 43-11-21-28-36-62-43z" fill="#f4e6c4"/>
    <path d="M95 65h72v14h-72zm0 26h72v14h-72zm0 26h52v14h-52z" fill="#ffffff" opacity="0.92"/>
  </g>

  <g transform="translate(300,86)">
    <text x="0" y="66" font-family="Poppins, Segoe UI, Arial, sans-serif" font-size="92" font-weight="800" fill="#1f5f4a" letter-spacing="1.3">
      ASSIGN TUTORS
    </text>
    <text x="2" y="126" font-family="Poppins, Segoe UI, Arial, sans-serif" font-size="32" font-weight="600" fill="#d5a14a" letter-spacing="5.5">
      ACADEMIC SUPPORT FOR GLOBAL STUDENTS
    </text>
    <rect x="2" y="146" width="790" height="3.5" fill="#d5a14a" opacity="0.9"/>
  </g>
</svg>
